<svg width="121" height="124" viewBox="0 0 121 124" fill="none" xmlns="http://www.w3.org/2000/svg">
<path d="M121 60.5C121 93.9132 93.9132 121 60.5 121C27.0868 121 0 93.9132 0 60.5C0 27.0868 27.0868 0 60.5 0C93.9132 0 121 27.0868 121 60.5Z" fill="#3F4B69"/>
<path d="M106 60.9131C106 86.3182 85.4051 106.913 60 106.913C34.5949 106.913 14 86.3182 14 60.9131C14 35.508 34.5949 14.9131 60 14.9131C85.4051 14.9131 106 35.508 106 60.9131Z" fill="#F9F9F9"/>
<path d="M31.8863 111.124L35.6041 103.753L39.1077 105.52C39.5934 105.765 39.9449 106.036 40.1621 106.334C40.3829 106.624 40.4909 106.943 40.4862 107.29C40.485 107.63 40.3853 107.996 40.1872 108.389C40.0215 108.718 39.8328 108.977 39.621 109.165C39.4164 109.358 39.1834 109.482 38.9221 109.539C38.6643 109.588 38.3728 109.571 38.0475 109.487L38.0259 109.53C38.3363 109.767 38.5483 110.013 38.6619 110.268C38.7827 110.526 38.8211 110.796 38.7772 111.078C38.7333 111.361 38.6285 111.666 38.4628 111.995C38.3223 112.274 38.1586 112.518 37.9719 112.729C37.7887 112.932 37.5753 113.08 37.3317 113.172C37.0953 113.268 36.8161 113.297 36.4942 113.26C36.1724 113.223 35.8007 113.098 35.3793 112.886L31.8863 111.124ZM33.6104 110.717L35.5283 111.684C35.8569 111.85 36.1267 111.946 36.3377 111.972C36.5523 111.99 36.7349 111.939 36.8856 111.818C37.047 111.693 37.1962 111.495 37.3331 111.224C37.4736 110.945 37.5442 110.707 37.5449 110.511C37.5491 110.307 37.4746 110.126 37.3213 109.968C37.1788 109.806 36.9504 109.646 36.6361 109.488L34.7182 108.521L33.6104 110.717ZM35.2369 107.492L37.112 108.438C37.4048 108.585 37.655 108.667 37.8624 108.682C38.077 108.7 38.265 108.656 38.4264 108.55C38.5914 108.436 38.7351 108.257 38.8576 108.014C38.9945 107.743 39.065 107.514 39.0692 107.328C39.0771 107.135 39.0115 106.963 38.8725 106.812C38.7335 106.662 38.4997 106.503 38.1711 106.338L36.296 105.392L35.2369 107.492Z" fill="#F9F9F9"/>
<path d="M40.1312 114.909L42.9443 107.148L44.2191 107.61L41.406 115.372L40.1312 114.909Z" fill="#F9F9F9"/>
<path d="M47.4569 117.176C46.8785 117.049 46.3939 116.906 46.0028 116.747C45.6213 116.582 45.3173 116.38 45.0909 116.142C44.8645 115.905 44.7112 115.613 44.631 115.268C44.5587 114.925 44.5425 114.512 44.5825 114.029C44.632 113.54 44.7302 112.96 44.8771 112.288C45.024 111.616 45.1761 111.051 45.3333 110.594C45.5 110.131 45.6918 109.76 45.9086 109.479C46.1254 109.199 46.3863 108.998 46.6914 108.877C46.9964 108.755 47.3559 108.703 47.7698 108.719C48.1933 108.73 48.6903 108.798 49.2609 108.922C49.5188 108.979 49.7976 109.052 50.0972 109.142C50.4047 109.234 50.7066 109.333 51.0029 109.438C51.3009 109.536 51.5698 109.636 51.8096 109.737L51.579 110.793C51.3218 110.695 51.0668 110.607 50.814 110.527C50.5612 110.447 50.3271 110.376 50.1117 110.312C49.9041 110.25 49.73 110.204 49.5893 110.173C49.1204 110.071 48.7231 109.996 48.3976 109.95C48.0737 109.895 47.7999 109.893 47.5762 109.942C47.3525 109.992 47.1621 110.114 47.0048 110.309C46.8493 110.496 46.7071 110.772 46.5782 111.137C46.4571 111.503 46.3316 111.983 46.2018 112.577C46.0873 113.101 46.0025 113.545 45.9474 113.91C45.9018 114.268 45.8964 114.574 45.9311 114.828C45.9753 115.075 46.0628 115.274 46.1935 115.425C46.332 115.578 46.5251 115.707 46.7727 115.81C47.0282 115.915 47.3474 116.009 47.7304 116.093C47.8789 116.125 48.036 116.156 48.2019 116.184C48.3755 116.214 48.5374 116.241 48.6876 116.265C48.8395 116.282 48.968 116.294 49.073 116.3L49.5727 114.014L47.9901 113.668L48.2309 112.567L51.0914 113.192L50.1484 117.506C49.8724 117.495 49.57 117.474 49.241 117.443C48.9215 117.406 48.6068 117.365 48.2969 117.322C47.987 117.279 47.707 117.23 47.4569 117.176Z" fill="#F9F9F9"/>
<path d="M58.875 118.475L58.5564 110.225L62.4775 110.074C63.0211 110.053 63.46 110.12 63.7943 110.275C64.1282 110.423 64.3771 110.649 64.5411 110.955C64.7047 111.253 64.795 111.622 64.8119 112.061C64.8261 112.429 64.7864 112.747 64.6926 113.015C64.6069 113.282 64.4633 113.504 64.262 113.68C64.0603 113.848 63.797 113.974 63.472 114.059L63.4739 114.107C63.8603 114.164 64.1649 114.276 64.3875 114.444C64.6182 114.611 64.7827 114.829 64.8811 115.097C64.9795 115.365 65.0359 115.684 65.0501 116.051C65.0621 116.363 65.0374 116.656 64.9759 116.931C64.9142 117.197 64.7991 117.43 64.6306 117.629C64.4701 117.827 64.2402 117.988 63.9407 118.112C63.6413 118.235 63.2557 118.306 62.7841 118.324L58.875 118.475ZM60.186 117.284L62.3324 117.201C62.7001 117.187 62.9825 117.14 63.1796 117.06C63.3764 116.973 63.5113 116.839 63.5845 116.66C63.6653 116.473 63.6999 116.227 63.6881 115.924C63.6761 115.612 63.6227 115.37 63.528 115.197C63.4329 115.017 63.2801 114.895 63.0695 114.831C62.8666 114.759 62.5892 114.729 62.2375 114.743L60.0911 114.826L60.186 117.284ZM60.0466 113.675L62.1451 113.593C62.4728 113.581 62.7311 113.531 62.9199 113.443C63.1166 113.356 63.2597 113.226 63.3492 113.055C63.4383 112.875 63.4776 112.649 63.4671 112.378C63.4554 112.074 63.4063 111.84 63.3199 111.675C63.2332 111.502 63.0925 111.383 62.8979 111.319C62.7032 111.254 62.422 111.229 62.0543 111.243L59.9559 111.324L60.0466 113.675Z" fill="#F9F9F9"/>
<path d="M68.2936 117.784L66.6539 109.693L72.0405 108.601L72.2693 109.73L68.2117 110.552L68.6812 112.869L72.186 112.159L72.4148 113.288L68.91 113.998L69.3938 116.386L73.4514 115.563L73.6801 116.693L68.2936 117.784Z" fill="#F9F9F9"/>
<path d="M76.6704 115.854L73.6544 108.168L74.9613 107.655L80.5667 111.592L80.6114 111.574L78.5248 106.257L79.7312 105.784L82.7472 113.469L81.5408 113.942L75.7691 109.878L75.7244 109.895L77.8768 115.38L76.6704 115.854Z" fill="#F9F9F9"/>
<path d="M49 72.9131C49 72.3608 49.4477 71.9131 50 71.9131H69.1613C69.7136 71.9131 70.1613 72.3608 70.1613 72.9131V87.9686V103.024C70.1613 103.576 69.7136 104.024 69.1613 104.024H50C49.4477 104.024 49 103.576 49 103.024V72.9131Z" fill="#A8A6A6"/>
<path d="M50.6278 89.32C50.6278 89.0953 50.81 88.9131 51.0347 88.9131C51.2595 88.9131 51.4417 89.0953 51.4417 89.32V105.506C51.4417 105.731 51.2595 105.913 51.0347 105.913C50.81 105.913 50.6278 105.731 50.6278 105.506V89.32Z" fill="#F9F9F9"/>
<path d="M67.7196 89.32C67.7196 89.0953 67.9018 88.9131 68.1266 88.9131C68.3513 88.9131 68.5335 89.0953 68.5335 89.32V105.506C68.5335 105.731 68.3513 105.913 68.1266 105.913C67.9018 105.913 67.7196 105.731 67.7196 105.506V89.32Z" fill="#F9F9F9"/>
<path d="M65.2779 89.32C65.2779 89.0953 65.4601 88.9131 65.6849 88.9131C65.9096 88.9131 66.0918 89.0953 66.0918 89.32V105.506C66.0918 105.731 65.9096 105.913 65.6849 105.913C65.4601 105.913 65.2779 105.731 65.2779 105.506V89.32Z" fill="#F9F9F9"/>
<path d="M62.8362 89.32C62.8362 89.0953 63.0184 88.9131 63.2432 88.9131C63.4679 88.9131 63.6501 89.0953 63.6501 89.32V105.506C63.6501 105.731 63.4679 105.913 63.2432 105.913C63.0184 105.913 62.8362 105.731 62.8362 105.506V89.32Z" fill="#F9F9F9"/>
<path d="M60.3945 89.32C60.3945 89.0953 60.5767 88.9131 60.8015 88.9131C61.0262 88.9131 61.2084 89.0953 61.2084 89.32V105.506C61.2084 105.731 61.0262 105.913 60.8015 105.913C60.5767 105.913 60.3945 105.731 60.3945 105.506V89.32Z" fill="#F9F9F9"/>
<path d="M57.9529 89.32C57.9529 89.0953 58.135 88.9131 58.3598 88.9131C58.5845 88.9131 58.7667 89.0953 58.7667 89.32V105.506C58.7667 105.731 58.5845 105.913 58.3598 105.913C58.135 105.913 57.9529 105.731 57.9529 105.506V89.32Z" fill="#F9F9F9"/>
<path d="M55.5112 89.32C55.5112 89.0953 55.6934 88.9131 55.9181 88.9131C56.1429 88.9131 56.3251 89.0953 56.3251 89.32V105.506C56.3251 105.731 56.1429 105.913 55.9181 105.913C55.6934 105.913 55.5112 105.731 55.5112 105.506V89.32Z" fill="#F9F9F9"/>
<path d="M53.0695 89.32C53.0695 89.0953 53.2517 88.9131 53.4764 88.9131C53.7012 88.9131 53.8834 89.0953 53.8834 89.32V105.506C53.8834 105.731 53.7012 105.913 53.4764 105.913C53.2517 105.913 53.0695 105.731 53.0695 105.506V89.32Z" fill="#F9F9F9"/>
<path d="M51.25 40.9131H67.75L70 43.0559V45.9131H49V43.0559L51.25 40.9131Z" fill="#A8A6A6"/>
<rect x="54" y="41.9131" width="1" height="3" rx="0.5" fill="white"/>
<rect x="64" y="41.9131" width="1" height="3" rx="0.5" fill="white"/>
<rect x="58" y="41.9131" width="1" height="3" rx="0.5" fill="white"/>
<rect x="62" y="41.9131" width="1" height="3" rx="0.5" fill="white"/>
<rect x="60" y="41.9131" width="1" height="3" rx="0.5" fill="white"/>
<rect x="56" y="41.9131" width="1" height="3" rx="0.5" fill="white"/>
<rect x="52" y="31.9131" width="15" height="8" fill="#A8A6A6"/>
<rect x="57" y="33.9131" width="1" height="4" rx="0.5" fill="white"/>
<rect x="61" y="33.9131" width="1" height="4" rx="0.5" fill="white"/>
<rect x="59" y="33.9131" width="1" height="4" rx="0.5" fill="white"/>
<path d="M59.5 17.9131L65.9952 30.6631H53.0048L59.5 17.9131Z" fill="#A8A6A6"/>
<line x1="59.5" y1="15.9131" x2="59.5" y2="18.9131" stroke="#A8A6A6"/>
<rect x="46" y="46.9131" width="27" height="24" rx="1" fill="#A8A6A6"/>
<ellipse cx="59.5" cy="58.9131" rx="9.5" ry="10" fill="#F9F9F9"/>
<line x1="56.7226" y1="60.4971" x2="59.7226" y2="58.4971" stroke="#626262"/>
<line x1="59.5" y1="53.9131" x2="59.5" y2="58.9131" stroke="#626262"/>
</svg>
